<svg width="50" height="50" viewBox="0 0 50 50" fill="none" xmlns="http://www.w3.org/2000/svg">
<path d="M27.0834 14.5833H22.9167V22.9167H14.5834V27.0833H22.9167V35.4167H27.0834V27.0833H35.4167V22.9167H27.0834V14.5833ZM25 4.16666C13.5 4.16666 4.16669 13.5 4.16669 25C4.16669 36.5 13.5 45.8333 25 45.8333C36.5 45.8333 45.8334 36.5 45.8334 25C45.8334 13.5 36.5 4.16666 25 4.16666ZM25 41.6667C15.8125 41.6667 8.33335 34.1875 8.33335 25C8.33335 15.8125 15.8125 8.33332 25 8.33332C34.1875 8.33332 41.6667 15.8125 41.6667 25C41.6667 34.1875 34.1875 41.6667 25 41.6667Z" fill="white"/>
</svg>
